<mxfile host="app.diagrams.net" agent="Mozilla/5.0 (Windows NT 10.0; Win64; x64) AppleWebKit/537.36 (KHTML, like Gecko) Chrome/130.0.0.0 Safari/537.36 Edg/130.0.0.0" version="24.8.3">
  <diagram name="Page-1" id="6_RXQo6_wfe92xqQEart">
    <mxGraphModel dx="2276" dy="781" grid="1" gridSize="10" guides="1" tooltips="1" connect="1" arrows="1" fold="1" page="1" pageScale="1" pageWidth="850" pageHeight="1100" math="0" shadow="0">
      <root>
        <mxCell id="0" />
        <mxCell id="1" parent="0" />
        <mxCell id="ECieiov6nm7-ruN3oHQH-1" value="&lt;font style=&quot;font-size: 20px;&quot;&gt;Hotel&lt;/font&gt;" style="rounded=1;arcSize=10;whiteSpace=wrap;html=1;align=center;" vertex="1" parent="1">
          <mxGeometry x="80" y="80" width="100" height="40" as="geometry" />
        </mxCell>
        <mxCell id="ECieiov6nm7-ruN3oHQH-2" value="&lt;font style=&quot;font-size: 20px;&quot;&gt;Rooms&lt;/font&gt;" style="rounded=1;arcSize=10;whiteSpace=wrap;html=1;align=center;" vertex="1" parent="1">
          <mxGeometry x="660" y="80" width="100" height="40" as="geometry" />
        </mxCell>
        <mxCell id="ECieiov6nm7-ruN3oHQH-3" value="&lt;font style=&quot;font-size: 20px;&quot;&gt;Guest&lt;/font&gt;" style="rounded=1;arcSize=3;whiteSpace=wrap;html=1;align=center;" vertex="1" parent="1">
          <mxGeometry x="80" y="360" width="100" height="40" as="geometry" />
        </mxCell>
        <mxCell id="ECieiov6nm7-ruN3oHQH-5" value="&lt;font style=&quot;font-size: 20px;&quot;&gt;Staff&lt;/font&gt;" style="rounded=1;arcSize=10;whiteSpace=wrap;html=1;align=center;" vertex="1" parent="1">
          <mxGeometry x="660" y="360" width="100" height="40" as="geometry" />
        </mxCell>
        <mxCell id="ECieiov6nm7-ruN3oHQH-6" value="Booking" style="rounded=1;arcSize=10;whiteSpace=wrap;html=1;align=center;fontSize=20;" vertex="1" parent="1">
          <mxGeometry x="660" y="600" width="100" height="40" as="geometry" />
        </mxCell>
        <mxCell id="ECieiov6nm7-ruN3oHQH-8" value="HID" style="ellipse;whiteSpace=wrap;html=1;align=center;fontStyle=4;fontSize=15;" vertex="1" parent="1">
          <mxGeometry x="20" y="20" width="40" height="40" as="geometry" />
        </mxCell>
        <mxCell id="ECieiov6nm7-ruN3oHQH-9" value="RID" style="ellipse;whiteSpace=wrap;html=1;align=center;fontStyle=4;fontSize=15;" vertex="1" parent="1">
          <mxGeometry x="810" y="20" width="40" height="40" as="geometry" />
        </mxCell>
        <mxCell id="ECieiov6nm7-ruN3oHQH-10" value="GID" style="ellipse;whiteSpace=wrap;html=1;align=center;fontStyle=4;fontSize=15;" vertex="1" parent="1">
          <mxGeometry x="20" y="300" width="40" height="40" as="geometry" />
        </mxCell>
        <mxCell id="ECieiov6nm7-ruN3oHQH-11" value="SID" style="ellipse;whiteSpace=wrap;html=1;align=center;fontStyle=4;fontSize=15;" vertex="1" parent="1">
          <mxGeometry x="780" y="320" width="40" height="40" as="geometry" />
        </mxCell>
        <mxCell id="ECieiov6nm7-ruN3oHQH-12" value="BID" style="ellipse;whiteSpace=wrap;html=1;align=center;fontStyle=4;fontSize=15;" vertex="1" parent="1">
          <mxGeometry x="630" y="540" width="40" height="40" as="geometry" />
        </mxCell>
        <mxCell id="ECieiov6nm7-ruN3oHQH-13" value="PID" style="ellipse;whiteSpace=wrap;html=1;align=center;fontStyle=4;fontSize=15;" vertex="1" parent="1">
          <mxGeometry x="20" y="540" width="40" height="40" as="geometry" />
        </mxCell>
        <mxCell id="ECieiov6nm7-ruN3oHQH-15" value="&lt;span style=&quot;font-size: 20px;&quot;&gt;payment&lt;/span&gt;" style="shape=ext;margin=3;double=1;whiteSpace=wrap;html=1;align=center;" vertex="1" parent="1">
          <mxGeometry x="70" y="600" width="100" height="40" as="geometry" />
        </mxCell>
        <mxCell id="ECieiov6nm7-ruN3oHQH-16" value="Review" style="shape=ext;margin=3;double=1;whiteSpace=wrap;html=1;align=center;fontSize=19;" vertex="1" parent="1">
          <mxGeometry x="359" y="779" width="100" height="40" as="geometry" />
        </mxCell>
        <mxCell id="ECieiov6nm7-ruN3oHQH-17" value="RevID" style="ellipse;whiteSpace=wrap;html=1;align=center;fontStyle=4;fontSize=15;" vertex="1" parent="1">
          <mxGeometry x="419" y="852" width="51" height="40" as="geometry" />
        </mxCell>
        <mxCell id="ECieiov6nm7-ruN3oHQH-19" value="&lt;span style=&quot;border-bottom: 1px dotted&quot;&gt;GID&lt;/span&gt;" style="ellipse;whiteSpace=wrap;html=1;align=center;" vertex="1" parent="1">
          <mxGeometry x="304" y="832" width="40" height="35" as="geometry" />
        </mxCell>
        <mxCell id="ECieiov6nm7-ruN3oHQH-20" value="HName" style="ellipse;whiteSpace=wrap;html=1;align=center;" vertex="1" parent="1">
          <mxGeometry x="75" y="10" width="70" height="40" as="geometry" />
        </mxCell>
        <mxCell id="ECieiov6nm7-ruN3oHQH-21" value="SName" style="ellipse;whiteSpace=wrap;html=1;align=center;" vertex="1" parent="1">
          <mxGeometry x="700" y="300" width="70" height="40" as="geometry" />
        </mxCell>
        <mxCell id="ECieiov6nm7-ruN3oHQH-22" value="GName" style="ellipse;whiteSpace=wrap;html=1;align=center;" vertex="1" parent="1">
          <mxGeometry x="85" y="300" width="70" height="40" as="geometry" />
        </mxCell>
        <mxCell id="ECieiov6nm7-ruN3oHQH-23" value="&lt;span style=&quot;border-bottom: 1px dotted&quot;&gt;GID&lt;/span&gt;" style="ellipse;whiteSpace=wrap;html=1;align=center;" vertex="1" parent="1">
          <mxGeometry x="688" y="545" width="40" height="35" as="geometry" />
        </mxCell>
        <mxCell id="ECieiov6nm7-ruN3oHQH-24" value="Location" style="ellipse;whiteSpace=wrap;html=1;align=center;" vertex="1" parent="1">
          <mxGeometry x="160" y="30" width="70" height="40" as="geometry" />
        </mxCell>
        <mxCell id="ECieiov6nm7-ruN3oHQH-25" value="Rating" style="ellipse;whiteSpace=wrap;html=1;align=center;" vertex="1" parent="1">
          <mxGeometry x="-65" y="30" width="70" height="40" as="geometry" />
        </mxCell>
        <mxCell id="ECieiov6nm7-ruN3oHQH-26" value="contact_num" style="ellipse;shape=doubleEllipse;margin=3;whiteSpace=wrap;html=1;align=center;" vertex="1" parent="1">
          <mxGeometry x="-10" y="140" width="100" height="40" as="geometry" />
        </mxCell>
        <mxCell id="ECieiov6nm7-ruN3oHQH-27" value="Type" style="ellipse;whiteSpace=wrap;html=1;align=center;" vertex="1" parent="1">
          <mxGeometry x="678" y="20" width="50" height="40" as="geometry" />
        </mxCell>
        <mxCell id="ECieiov6nm7-ruN3oHQH-28" value="price" style="ellipse;whiteSpace=wrap;html=1;align=center;" vertex="1" parent="1">
          <mxGeometry x="740" y="20" width="50" height="40" as="geometry" />
        </mxCell>
        <mxCell id="ECieiov6nm7-ruN3oHQH-29" value="availability" style="ellipse;whiteSpace=wrap;html=1;align=center;" vertex="1" parent="1">
          <mxGeometry x="800" y="80" width="75" height="40" as="geometry" />
        </mxCell>
        <mxCell id="ECieiov6nm7-ruN3oHQH-30" value="IDproof" style="ellipse;whiteSpace=wrap;html=1;align=center;" vertex="1" parent="1">
          <mxGeometry x="-20" y="400" width="70" height="40" as="geometry" />
        </mxCell>
        <mxCell id="ECieiov6nm7-ruN3oHQH-31" value="GPhone" style="ellipse;shape=doubleEllipse;margin=3;whiteSpace=wrap;html=1;align=center;" vertex="1" parent="1">
          <mxGeometry x="60" y="430" width="70" height="30" as="geometry" />
        </mxCell>
        <mxCell id="ECieiov6nm7-ruN3oHQH-32" value="SPhone" style="ellipse;shape=doubleEllipse;margin=3;whiteSpace=wrap;html=1;align=center;" vertex="1" parent="1">
          <mxGeometry x="765" y="420" width="70" height="30" as="geometry" />
        </mxCell>
        <mxCell id="ECieiov6nm7-ruN3oHQH-33" value="position" style="ellipse;whiteSpace=wrap;html=1;align=center;" vertex="1" parent="1">
          <mxGeometry x="790" y="370" width="70" height="40" as="geometry" />
        </mxCell>
        <mxCell id="ECieiov6nm7-ruN3oHQH-34" value=" work_at_specific" style="ellipse;whiteSpace=wrap;html=1;align=center;" vertex="1" parent="1">
          <mxGeometry x="660" y="440" width="100" height="40" as="geometry" />
        </mxCell>
        <mxCell id="ECieiov6nm7-ruN3oHQH-35" value=" BookingDate" style="ellipse;whiteSpace=wrap;html=1;align=center;" vertex="1" parent="1">
          <mxGeometry x="735" y="540" width="100" height="40" as="geometry" />
        </mxCell>
        <mxCell id="ECieiov6nm7-ruN3oHQH-36" value="checkINDate" style="ellipse;whiteSpace=wrap;html=1;align=center;" vertex="1" parent="1">
          <mxGeometry x="590" y="675" width="100" height="40" as="geometry" />
        </mxCell>
        <mxCell id="ECieiov6nm7-ruN3oHQH-37" value="checkOUTDate" style="ellipse;whiteSpace=wrap;html=1;align=center;" vertex="1" parent="1">
          <mxGeometry x="830" y="570" width="100" height="40" as="geometry" />
        </mxCell>
        <mxCell id="ECieiov6nm7-ruN3oHQH-38" value="status" style="ellipse;whiteSpace=wrap;html=1;align=center;" vertex="1" parent="1">
          <mxGeometry x="700" y="675" width="60" height="40" as="geometry" />
        </mxCell>
        <mxCell id="ECieiov6nm7-ruN3oHQH-39" value="COST" style="ellipse;whiteSpace=wrap;html=1;align=center;dashed=1;" vertex="1" parent="1">
          <mxGeometry x="770" y="650" width="60" height="40" as="geometry" />
        </mxCell>
        <mxCell id="ECieiov6nm7-ruN3oHQH-40" value="Amount" style="ellipse;whiteSpace=wrap;html=1;align=center;dashed=1;" vertex="1" parent="1">
          <mxGeometry x="-20" y="600" width="60" height="40" as="geometry" />
        </mxCell>
        <mxCell id="ECieiov6nm7-ruN3oHQH-41" value="Mehods" style="ellipse;whiteSpace=wrap;html=1;align=center;" vertex="1" parent="1">
          <mxGeometry x="5" y="670" width="60" height="40" as="geometry" />
        </mxCell>
        <mxCell id="ECieiov6nm7-ruN3oHQH-43" value="pDate" style="ellipse;whiteSpace=wrap;html=1;align=center;" vertex="1" parent="1">
          <mxGeometry x="80" y="670" width="60" height="40" as="geometry" />
        </mxCell>
        <mxCell id="ECieiov6nm7-ruN3oHQH-44" value="date" style="ellipse;whiteSpace=wrap;html=1;align=center;" vertex="1" parent="1">
          <mxGeometry x="474" y="842" width="60" height="40" as="geometry" />
        </mxCell>
        <mxCell id="ECieiov6nm7-ruN3oHQH-45" value="&lt;span style=&quot;border-bottom: 1px dotted&quot;&gt;GID&lt;/span&gt;" style="ellipse;whiteSpace=wrap;html=1;align=center;" vertex="1" parent="1">
          <mxGeometry x="160" y="675" width="40" height="35" as="geometry" />
        </mxCell>
        <mxCell id="ECieiov6nm7-ruN3oHQH-46" value="rating" style="ellipse;whiteSpace=wrap;html=1;align=center;" vertex="1" parent="1">
          <mxGeometry x="504" y="782" width="60" height="40" as="geometry" />
        </mxCell>
        <mxCell id="ECieiov6nm7-ruN3oHQH-47" value="commant" style="ellipse;whiteSpace=wrap;html=1;align=center;" vertex="1" parent="1">
          <mxGeometry x="344" y="852" width="60" height="40" as="geometry" />
        </mxCell>
        <mxCell id="ECieiov6nm7-ruN3oHQH-48" value="" style="endArrow=none;html=1;rounded=0;entryX=0.4;entryY=1.025;entryDx=0;entryDy=0;entryPerimeter=0;exitX=1;exitY=0;exitDx=0;exitDy=0;" edge="1" parent="1" source="ECieiov6nm7-ruN3oHQH-26" target="ECieiov6nm7-ruN3oHQH-1">
          <mxGeometry relative="1" as="geometry">
            <mxPoint x="150" y="159.5" as="sourcePoint" />
            <mxPoint x="310" y="159.5" as="targetPoint" />
          </mxGeometry>
        </mxCell>
        <mxCell id="ECieiov6nm7-ruN3oHQH-49" value="" style="endArrow=none;html=1;rounded=0;exitX=0.5;exitY=1;exitDx=0;exitDy=0;" edge="1" parent="1" source="ECieiov6nm7-ruN3oHQH-24" target="ECieiov6nm7-ruN3oHQH-1">
          <mxGeometry relative="1" as="geometry">
            <mxPoint x="270" y="90" as="sourcePoint" />
            <mxPoint x="430" y="90" as="targetPoint" />
          </mxGeometry>
        </mxCell>
        <mxCell id="ECieiov6nm7-ruN3oHQH-50" value="" style="endArrow=none;html=1;rounded=0;entryX=1;entryY=1;entryDx=0;entryDy=0;exitX=0;exitY=0.75;exitDx=0;exitDy=0;" edge="1" parent="1" source="ECieiov6nm7-ruN3oHQH-1" target="ECieiov6nm7-ruN3oHQH-25">
          <mxGeometry relative="1" as="geometry">
            <mxPoint x="85" y="156" as="sourcePoint" />
            <mxPoint x="130" y="131" as="targetPoint" />
          </mxGeometry>
        </mxCell>
        <mxCell id="ECieiov6nm7-ruN3oHQH-51" value="" style="endArrow=none;html=1;rounded=0;exitX=1;exitY=1;exitDx=0;exitDy=0;" edge="1" parent="1" source="ECieiov6nm7-ruN3oHQH-8" target="ECieiov6nm7-ruN3oHQH-1">
          <mxGeometry relative="1" as="geometry">
            <mxPoint x="340" y="80" as="sourcePoint" />
            <mxPoint x="500" y="80" as="targetPoint" />
          </mxGeometry>
        </mxCell>
        <mxCell id="ECieiov6nm7-ruN3oHQH-52" value="" style="endArrow=none;html=1;rounded=0;exitX=0.5;exitY=1;exitDx=0;exitDy=0;" edge="1" parent="1" source="ECieiov6nm7-ruN3oHQH-20" target="ECieiov6nm7-ruN3oHQH-1">
          <mxGeometry relative="1" as="geometry">
            <mxPoint x="340" y="80" as="sourcePoint" />
            <mxPoint x="500" y="80" as="targetPoint" />
          </mxGeometry>
        </mxCell>
        <mxCell id="ECieiov6nm7-ruN3oHQH-53" value="" style="endArrow=none;html=1;rounded=0;" edge="1" parent="1" source="ECieiov6nm7-ruN3oHQH-2" target="ECieiov6nm7-ruN3oHQH-29">
          <mxGeometry relative="1" as="geometry">
            <mxPoint x="340" y="80" as="sourcePoint" />
            <mxPoint x="500" y="80" as="targetPoint" />
          </mxGeometry>
        </mxCell>
        <mxCell id="ECieiov6nm7-ruN3oHQH-54" value="" style="endArrow=none;html=1;rounded=0;entryX=0;entryY=1;entryDx=0;entryDy=0;exitX=1;exitY=0.25;exitDx=0;exitDy=0;" edge="1" parent="1" source="ECieiov6nm7-ruN3oHQH-2" target="ECieiov6nm7-ruN3oHQH-9">
          <mxGeometry relative="1" as="geometry">
            <mxPoint x="340" y="80" as="sourcePoint" />
            <mxPoint x="500" y="80" as="targetPoint" />
          </mxGeometry>
        </mxCell>
        <mxCell id="ECieiov6nm7-ruN3oHQH-55" value="" style="endArrow=none;html=1;rounded=0;entryX=0.5;entryY=1;entryDx=0;entryDy=0;exitX=0.85;exitY=0.05;exitDx=0;exitDy=0;exitPerimeter=0;" edge="1" parent="1" source="ECieiov6nm7-ruN3oHQH-2" target="ECieiov6nm7-ruN3oHQH-28">
          <mxGeometry relative="1" as="geometry">
            <mxPoint x="340" y="80" as="sourcePoint" />
            <mxPoint x="500" y="80" as="targetPoint" />
          </mxGeometry>
        </mxCell>
        <mxCell id="ECieiov6nm7-ruN3oHQH-56" value="" style="endArrow=none;html=1;rounded=0;exitX=0.5;exitY=0;exitDx=0;exitDy=0;entryX=0.66;entryY=0.875;entryDx=0;entryDy=0;entryPerimeter=0;" edge="1" parent="1" source="ECieiov6nm7-ruN3oHQH-2" target="ECieiov6nm7-ruN3oHQH-27">
          <mxGeometry relative="1" as="geometry">
            <mxPoint x="340" y="80" as="sourcePoint" />
            <mxPoint x="700" y="50" as="targetPoint" />
          </mxGeometry>
        </mxCell>
        <mxCell id="ECieiov6nm7-ruN3oHQH-57" value="" style="endArrow=none;html=1;rounded=0;entryX=0.35;entryY=0.025;entryDx=0;entryDy=0;entryPerimeter=0;exitX=0.5;exitY=1;exitDx=0;exitDy=0;" edge="1" parent="1" source="ECieiov6nm7-ruN3oHQH-5" target="ECieiov6nm7-ruN3oHQH-34">
          <mxGeometry relative="1" as="geometry">
            <mxPoint x="340" y="380" as="sourcePoint" />
            <mxPoint x="500" y="380" as="targetPoint" />
          </mxGeometry>
        </mxCell>
        <mxCell id="ECieiov6nm7-ruN3oHQH-58" value="" style="endArrow=none;html=1;rounded=0;exitX=0.75;exitY=1;exitDx=0;exitDy=0;" edge="1" parent="1" source="ECieiov6nm7-ruN3oHQH-5" target="ECieiov6nm7-ruN3oHQH-32">
          <mxGeometry relative="1" as="geometry">
            <mxPoint x="530" y="410" as="sourcePoint" />
            <mxPoint x="690" y="410" as="targetPoint" />
          </mxGeometry>
        </mxCell>
        <mxCell id="ECieiov6nm7-ruN3oHQH-59" value="" style="endArrow=none;html=1;rounded=0;entryX=0;entryY=0.775;entryDx=0;entryDy=0;entryPerimeter=0;" edge="1" parent="1" source="ECieiov6nm7-ruN3oHQH-5" target="ECieiov6nm7-ruN3oHQH-33">
          <mxGeometry relative="1" as="geometry">
            <mxPoint x="340" y="380" as="sourcePoint" />
            <mxPoint x="500" y="380" as="targetPoint" />
          </mxGeometry>
        </mxCell>
        <mxCell id="ECieiov6nm7-ruN3oHQH-60" value="" style="endArrow=none;html=1;rounded=0;entryX=0.325;entryY=0.925;entryDx=0;entryDy=0;entryPerimeter=0;" edge="1" parent="1" source="ECieiov6nm7-ruN3oHQH-5" target="ECieiov6nm7-ruN3oHQH-11">
          <mxGeometry relative="1" as="geometry">
            <mxPoint x="340" y="380" as="sourcePoint" />
            <mxPoint x="500" y="380" as="targetPoint" />
          </mxGeometry>
        </mxCell>
        <mxCell id="ECieiov6nm7-ruN3oHQH-61" value="" style="endArrow=none;html=1;rounded=0;entryX=0.4;entryY=0.975;entryDx=0;entryDy=0;entryPerimeter=0;exitX=0.75;exitY=0;exitDx=0;exitDy=0;" edge="1" parent="1" source="ECieiov6nm7-ruN3oHQH-5" target="ECieiov6nm7-ruN3oHQH-21">
          <mxGeometry relative="1" as="geometry">
            <mxPoint x="340" y="380" as="sourcePoint" />
            <mxPoint x="500" y="380" as="targetPoint" />
          </mxGeometry>
        </mxCell>
        <mxCell id="ECieiov6nm7-ruN3oHQH-62" value="" style="endArrow=none;html=1;rounded=0;" edge="1" parent="1" source="ECieiov6nm7-ruN3oHQH-31" target="ECieiov6nm7-ruN3oHQH-3">
          <mxGeometry relative="1" as="geometry">
            <mxPoint x="340" y="380" as="sourcePoint" />
            <mxPoint x="500" y="380" as="targetPoint" />
          </mxGeometry>
        </mxCell>
        <mxCell id="ECieiov6nm7-ruN3oHQH-63" value="" style="endArrow=none;html=1;rounded=0;exitX=1;exitY=0.5;exitDx=0;exitDy=0;entryX=0;entryY=0.75;entryDx=0;entryDy=0;" edge="1" parent="1" source="ECieiov6nm7-ruN3oHQH-30" target="ECieiov6nm7-ruN3oHQH-3">
          <mxGeometry relative="1" as="geometry">
            <mxPoint x="340" y="380" as="sourcePoint" />
            <mxPoint x="500" y="380" as="targetPoint" />
          </mxGeometry>
        </mxCell>
        <mxCell id="ECieiov6nm7-ruN3oHQH-64" value="" style="endArrow=none;html=1;rounded=0;exitX=0.671;exitY=0.95;exitDx=0;exitDy=0;exitPerimeter=0;" edge="1" parent="1" source="ECieiov6nm7-ruN3oHQH-22" target="ECieiov6nm7-ruN3oHQH-3">
          <mxGeometry relative="1" as="geometry">
            <mxPoint x="340" y="380" as="sourcePoint" />
            <mxPoint x="500" y="380" as="targetPoint" />
          </mxGeometry>
        </mxCell>
        <mxCell id="ECieiov6nm7-ruN3oHQH-65" value="" style="endArrow=none;html=1;rounded=0;exitX=1;exitY=1;exitDx=0;exitDy=0;entryX=0.11;entryY=0.05;entryDx=0;entryDy=0;entryPerimeter=0;" edge="1" parent="1" source="ECieiov6nm7-ruN3oHQH-10" target="ECieiov6nm7-ruN3oHQH-3">
          <mxGeometry relative="1" as="geometry">
            <mxPoint x="340" y="380" as="sourcePoint" />
            <mxPoint x="500" y="380" as="targetPoint" />
          </mxGeometry>
        </mxCell>
        <mxCell id="ECieiov6nm7-ruN3oHQH-66" value="" style="endArrow=none;html=1;rounded=0;entryX=0;entryY=1;entryDx=0;entryDy=0;" edge="1" parent="1" source="ECieiov6nm7-ruN3oHQH-41" target="ECieiov6nm7-ruN3oHQH-15">
          <mxGeometry relative="1" as="geometry">
            <mxPoint x="-100" y="740" as="sourcePoint" />
            <mxPoint x="60" y="740" as="targetPoint" />
          </mxGeometry>
        </mxCell>
        <mxCell id="ECieiov6nm7-ruN3oHQH-67" value="" style="endArrow=none;html=1;rounded=0;" edge="1" parent="1" source="ECieiov6nm7-ruN3oHQH-15" target="ECieiov6nm7-ruN3oHQH-43">
          <mxGeometry relative="1" as="geometry">
            <mxPoint x="340" y="680" as="sourcePoint" />
            <mxPoint x="170" y="670" as="targetPoint" />
          </mxGeometry>
        </mxCell>
        <mxCell id="ECieiov6nm7-ruN3oHQH-68" value="" style="endArrow=none;html=1;rounded=0;" edge="1" parent="1" source="ECieiov6nm7-ruN3oHQH-15" target="ECieiov6nm7-ruN3oHQH-45">
          <mxGeometry relative="1" as="geometry">
            <mxPoint x="340" y="680" as="sourcePoint" />
            <mxPoint x="500" y="680" as="targetPoint" />
          </mxGeometry>
        </mxCell>
        <mxCell id="ECieiov6nm7-ruN3oHQH-69" value="" style="endArrow=none;html=1;rounded=0;exitX=1;exitY=1;exitDx=0;exitDy=0;" edge="1" parent="1" source="ECieiov6nm7-ruN3oHQH-13" target="ECieiov6nm7-ruN3oHQH-15">
          <mxGeometry relative="1" as="geometry">
            <mxPoint x="340" y="680" as="sourcePoint" />
            <mxPoint x="500" y="680" as="targetPoint" />
          </mxGeometry>
        </mxCell>
        <mxCell id="ECieiov6nm7-ruN3oHQH-70" value="" style="endArrow=none;html=1;rounded=0;exitX=1;exitY=1;exitDx=0;exitDy=0;" edge="1" parent="1" source="ECieiov6nm7-ruN3oHQH-40" target="ECieiov6nm7-ruN3oHQH-15">
          <mxGeometry relative="1" as="geometry">
            <mxPoint x="340" y="680" as="sourcePoint" />
            <mxPoint x="500" y="680" as="targetPoint" />
          </mxGeometry>
        </mxCell>
        <mxCell id="ECieiov6nm7-ruN3oHQH-71" value="" style="endArrow=none;html=1;rounded=0;entryX=0.5;entryY=0;entryDx=0;entryDy=0;exitX=0.07;exitY=1.075;exitDx=0;exitDy=0;exitPerimeter=0;" edge="1" parent="1" source="ECieiov6nm7-ruN3oHQH-6" target="ECieiov6nm7-ruN3oHQH-36">
          <mxGeometry relative="1" as="geometry">
            <mxPoint x="340" y="680" as="sourcePoint" />
            <mxPoint x="500" y="680" as="targetPoint" />
          </mxGeometry>
        </mxCell>
        <mxCell id="ECieiov6nm7-ruN3oHQH-72" value="" style="endArrow=none;html=1;rounded=0;entryX=0;entryY=1;entryDx=0;entryDy=0;exitX=0;exitY=0;exitDx=0;exitDy=0;" edge="1" parent="1" source="ECieiov6nm7-ruN3oHQH-6" target="ECieiov6nm7-ruN3oHQH-12">
          <mxGeometry relative="1" as="geometry">
            <mxPoint x="340" y="680" as="sourcePoint" />
            <mxPoint x="500" y="680" as="targetPoint" />
          </mxGeometry>
        </mxCell>
        <mxCell id="ECieiov6nm7-ruN3oHQH-73" value="" style="endArrow=none;html=1;rounded=0;entryX=0.75;entryY=1;entryDx=0;entryDy=0;" edge="1" parent="1" source="ECieiov6nm7-ruN3oHQH-38" target="ECieiov6nm7-ruN3oHQH-6">
          <mxGeometry relative="1" as="geometry">
            <mxPoint x="770" y="740" as="sourcePoint" />
            <mxPoint x="930" y="740" as="targetPoint" />
          </mxGeometry>
        </mxCell>
        <mxCell id="ECieiov6nm7-ruN3oHQH-74" value="" style="endArrow=none;html=1;rounded=0;exitX=1;exitY=0.75;exitDx=0;exitDy=0;entryX=0;entryY=0;entryDx=0;entryDy=0;" edge="1" parent="1" source="ECieiov6nm7-ruN3oHQH-6" target="ECieiov6nm7-ruN3oHQH-39">
          <mxGeometry relative="1" as="geometry">
            <mxPoint x="340" y="680" as="sourcePoint" />
            <mxPoint x="500" y="680" as="targetPoint" />
          </mxGeometry>
        </mxCell>
        <mxCell id="ECieiov6nm7-ruN3oHQH-75" value="" style="endArrow=none;html=1;rounded=0;" edge="1" parent="1" source="ECieiov6nm7-ruN3oHQH-6" target="ECieiov6nm7-ruN3oHQH-23">
          <mxGeometry relative="1" as="geometry">
            <mxPoint x="450" y="639" as="sourcePoint" />
            <mxPoint x="610" y="639" as="targetPoint" />
          </mxGeometry>
        </mxCell>
        <mxCell id="ECieiov6nm7-ruN3oHQH-76" value="" style="endArrow=none;html=1;rounded=0;entryX=0.29;entryY=0.875;entryDx=0;entryDy=0;entryPerimeter=0;exitX=0.9;exitY=0.125;exitDx=0;exitDy=0;exitPerimeter=0;" edge="1" parent="1" source="ECieiov6nm7-ruN3oHQH-6" target="ECieiov6nm7-ruN3oHQH-35">
          <mxGeometry relative="1" as="geometry">
            <mxPoint x="340" y="680" as="sourcePoint" />
            <mxPoint x="500" y="680" as="targetPoint" />
          </mxGeometry>
        </mxCell>
        <mxCell id="ECieiov6nm7-ruN3oHQH-77" value="" style="endArrow=none;html=1;rounded=0;exitX=1;exitY=0.25;exitDx=0;exitDy=0;" edge="1" parent="1" source="ECieiov6nm7-ruN3oHQH-6" target="ECieiov6nm7-ruN3oHQH-37">
          <mxGeometry relative="1" as="geometry">
            <mxPoint x="340" y="680" as="sourcePoint" />
            <mxPoint x="500" y="680" as="targetPoint" />
          </mxGeometry>
        </mxCell>
        <mxCell id="ECieiov6nm7-ruN3oHQH-78" value="" style="endArrow=none;html=1;rounded=0;entryX=1;entryY=0;entryDx=0;entryDy=0;exitX=0.17;exitY=0.975;exitDx=0;exitDy=0;exitPerimeter=0;" edge="1" parent="1" source="ECieiov6nm7-ruN3oHQH-16" target="ECieiov6nm7-ruN3oHQH-19">
          <mxGeometry relative="1" as="geometry">
            <mxPoint x="324" y="662" as="sourcePoint" />
            <mxPoint x="484" y="662" as="targetPoint" />
          </mxGeometry>
        </mxCell>
        <mxCell id="ECieiov6nm7-ruN3oHQH-81" value="" style="endArrow=none;html=1;rounded=0;entryX=0.65;entryY=0.025;entryDx=0;entryDy=0;entryPerimeter=0;exitX=0.4;exitY=0.9;exitDx=0;exitDy=0;exitPerimeter=0;" edge="1" parent="1" source="ECieiov6nm7-ruN3oHQH-16" target="ECieiov6nm7-ruN3oHQH-47">
          <mxGeometry relative="1" as="geometry">
            <mxPoint x="329" y="712" as="sourcePoint" />
            <mxPoint x="489" y="712" as="targetPoint" />
          </mxGeometry>
        </mxCell>
        <mxCell id="ECieiov6nm7-ruN3oHQH-82" value="" style="endArrow=none;html=1;rounded=0;" edge="1" parent="1" source="ECieiov6nm7-ruN3oHQH-16" target="ECieiov6nm7-ruN3oHQH-17">
          <mxGeometry relative="1" as="geometry">
            <mxPoint x="324" y="662" as="sourcePoint" />
            <mxPoint x="484" y="662" as="targetPoint" />
          </mxGeometry>
        </mxCell>
        <mxCell id="ECieiov6nm7-ruN3oHQH-83" value="" style="endArrow=none;html=1;rounded=0;entryX=0.35;entryY=0.1;entryDx=0;entryDy=0;entryPerimeter=0;exitX=0.92;exitY=0.95;exitDx=0;exitDy=0;exitPerimeter=0;" edge="1" parent="1" source="ECieiov6nm7-ruN3oHQH-16" target="ECieiov6nm7-ruN3oHQH-44">
          <mxGeometry relative="1" as="geometry">
            <mxPoint x="324" y="662" as="sourcePoint" />
            <mxPoint x="484" y="662" as="targetPoint" />
          </mxGeometry>
        </mxCell>
        <mxCell id="ECieiov6nm7-ruN3oHQH-84" value="" style="endArrow=none;html=1;rounded=0;entryX=0;entryY=0;entryDx=0;entryDy=0;exitX=1;exitY=0.25;exitDx=0;exitDy=0;" edge="1" parent="1" source="ECieiov6nm7-ruN3oHQH-16" target="ECieiov6nm7-ruN3oHQH-46">
          <mxGeometry relative="1" as="geometry">
            <mxPoint x="324" y="662" as="sourcePoint" />
            <mxPoint x="484" y="662" as="targetPoint" />
          </mxGeometry>
        </mxCell>
        <mxCell id="ECieiov6nm7-ruN3oHQH-85" value="HAS" style="shape=rhombus;perimeter=rhombusPerimeter;whiteSpace=wrap;html=1;align=center;" vertex="1" parent="1">
          <mxGeometry x="400" y="70" width="70" height="60" as="geometry" />
        </mxCell>
        <mxCell id="ECieiov6nm7-ruN3oHQH-86" value="have" style="shape=rhombus;perimeter=rhombusPerimeter;whiteSpace=wrap;html=1;align=center;" vertex="1" parent="1">
          <mxGeometry x="966" y="390" width="70" height="60" as="geometry" />
        </mxCell>
        <mxCell id="ECieiov6nm7-ruN3oHQH-87" value="Booking" style="shape=rhombus;perimeter=rhombusPerimeter;whiteSpace=wrap;html=1;align=center;" vertex="1" parent="1">
          <mxGeometry x="390" y="430" width="70" height="60" as="geometry" />
        </mxCell>
        <mxCell id="ECieiov6nm7-ruN3oHQH-89" value="HAS" style="shape=rhombus;perimeter=rhombusPerimeter;whiteSpace=wrap;html=1;align=center;" vertex="1" parent="1">
          <mxGeometry x="400" y="250" width="70" height="60" as="geometry" />
        </mxCell>
        <mxCell id="ECieiov6nm7-ruN3oHQH-91" value="Review" style="shape=rhombus;double=1;perimeter=rhombusPerimeter;whiteSpace=wrap;html=1;align=center;" vertex="1" parent="1">
          <mxGeometry x="-220" y="900" width="90" height="60" as="geometry" />
        </mxCell>
        <mxCell id="ECieiov6nm7-ruN3oHQH-92" value="Review" style="shape=rhombus;double=1;perimeter=rhombusPerimeter;whiteSpace=wrap;html=1;align=center;" vertex="1" parent="1">
          <mxGeometry x="60" y="770" width="90" height="60" as="geometry" />
        </mxCell>
        <mxCell id="ECieiov6nm7-ruN3oHQH-93" value="have" style="shape=rhombus;double=1;perimeter=rhombusPerimeter;whiteSpace=wrap;html=1;align=center;" vertex="1" parent="1">
          <mxGeometry x="360" y="600" width="90" height="60" as="geometry" />
        </mxCell>
        <mxCell id="ECieiov6nm7-ruN3oHQH-94" value="" style="endArrow=none;html=1;rounded=0;entryX=1;entryY=0.5;entryDx=0;entryDy=0;exitX=0;exitY=0.5;exitDx=0;exitDy=0;" edge="1" parent="1" source="ECieiov6nm7-ruN3oHQH-85" target="ECieiov6nm7-ruN3oHQH-1">
          <mxGeometry relative="1" as="geometry">
            <mxPoint x="340" y="180" as="sourcePoint" />
            <mxPoint x="500" y="180" as="targetPoint" />
          </mxGeometry>
        </mxCell>
        <mxCell id="ECieiov6nm7-ruN3oHQH-95" value="1" style="resizable=0;html=1;whiteSpace=wrap;align=right;verticalAlign=bottom;" connectable="0" vertex="1" parent="ECieiov6nm7-ruN3oHQH-94">
          <mxGeometry x="1" relative="1" as="geometry" />
        </mxCell>
        <mxCell id="ECieiov6nm7-ruN3oHQH-96" value="" style="endArrow=none;html=1;rounded=0;entryX=0;entryY=0.5;entryDx=0;entryDy=0;exitX=1;exitY=0.5;exitDx=0;exitDy=0;entryPerimeter=0;" edge="1" parent="1" source="ECieiov6nm7-ruN3oHQH-85" target="ECieiov6nm7-ruN3oHQH-2">
          <mxGeometry relative="1" as="geometry">
            <mxPoint x="340" y="180" as="sourcePoint" />
            <mxPoint x="500" y="180" as="targetPoint" />
          </mxGeometry>
        </mxCell>
        <mxCell id="ECieiov6nm7-ruN3oHQH-97" value="N" style="resizable=0;html=1;whiteSpace=wrap;align=right;verticalAlign=bottom;" connectable="0" vertex="1" parent="ECieiov6nm7-ruN3oHQH-96">
          <mxGeometry x="1" relative="1" as="geometry" />
        </mxCell>
        <mxCell id="ECieiov6nm7-ruN3oHQH-98" value="" style="endArrow=none;html=1;rounded=0;entryX=0.91;entryY=0.975;entryDx=0;entryDy=0;entryPerimeter=0;" edge="1" parent="1" source="ECieiov6nm7-ruN3oHQH-89" target="ECieiov6nm7-ruN3oHQH-1">
          <mxGeometry relative="1" as="geometry">
            <mxPoint x="370" y="280" as="sourcePoint" />
            <mxPoint x="130" y="200" as="targetPoint" />
            <Array as="points">
              <mxPoint x="170" y="280" />
            </Array>
          </mxGeometry>
        </mxCell>
        <mxCell id="ECieiov6nm7-ruN3oHQH-99" value="1" style="resizable=0;html=1;whiteSpace=wrap;align=right;verticalAlign=bottom;" connectable="0" vertex="1" parent="ECieiov6nm7-ruN3oHQH-98">
          <mxGeometry x="1" relative="1" as="geometry" />
        </mxCell>
        <mxCell id="ECieiov6nm7-ruN3oHQH-100" value="" style="endArrow=none;html=1;rounded=0;entryX=0;entryY=0.5;entryDx=0;entryDy=0;exitX=1;exitY=0.5;exitDx=0;exitDy=0;" edge="1" parent="1" source="ECieiov6nm7-ruN3oHQH-89" target="ECieiov6nm7-ruN3oHQH-5">
          <mxGeometry relative="1" as="geometry">
            <mxPoint x="530" y="230" as="sourcePoint" />
            <mxPoint x="665" y="220" as="targetPoint" />
            <Array as="points">
              <mxPoint x="520" y="280" />
              <mxPoint x="520" y="380" />
            </Array>
          </mxGeometry>
        </mxCell>
        <mxCell id="ECieiov6nm7-ruN3oHQH-101" value="N" style="resizable=0;html=1;whiteSpace=wrap;align=right;verticalAlign=bottom;" connectable="0" vertex="1" parent="ECieiov6nm7-ruN3oHQH-100">
          <mxGeometry x="1" relative="1" as="geometry" />
        </mxCell>
        <mxCell id="ECieiov6nm7-ruN3oHQH-102" value="" style="endArrow=none;html=1;rounded=0;entryX=0.87;entryY=1;entryDx=0;entryDy=0;entryPerimeter=0;exitX=0.5;exitY=0;exitDx=0;exitDy=0;" edge="1" parent="1" source="ECieiov6nm7-ruN3oHQH-86" target="ECieiov6nm7-ruN3oHQH-2">
          <mxGeometry relative="1" as="geometry">
            <mxPoint x="1000" y="330" as="sourcePoint" />
            <mxPoint x="780" y="120" as="targetPoint" />
            <Array as="points">
              <mxPoint x="1000" y="200" />
              <mxPoint x="747" y="200" />
            </Array>
          </mxGeometry>
        </mxCell>
        <mxCell id="ECieiov6nm7-ruN3oHQH-103" value="1" style="resizable=0;html=1;whiteSpace=wrap;align=right;verticalAlign=bottom;" connectable="0" vertex="1" parent="ECieiov6nm7-ruN3oHQH-102">
          <mxGeometry x="1" relative="1" as="geometry" />
        </mxCell>
        <mxCell id="ECieiov6nm7-ruN3oHQH-104" value="" style="endArrow=none;html=1;rounded=0;exitX=0.5;exitY=1;exitDx=0;exitDy=0;entryX=1;entryY=0.75;entryDx=0;entryDy=0;" edge="1" parent="1" source="ECieiov6nm7-ruN3oHQH-86" target="ECieiov6nm7-ruN3oHQH-6">
          <mxGeometry relative="1" as="geometry">
            <mxPoint x="1010" y="490" as="sourcePoint" />
            <mxPoint x="1010" y="740" as="targetPoint" />
            <Array as="points">
              <mxPoint x="1000" y="630" />
            </Array>
          </mxGeometry>
        </mxCell>
        <mxCell id="ECieiov6nm7-ruN3oHQH-105" value="N" style="resizable=0;html=1;whiteSpace=wrap;align=right;verticalAlign=bottom;" connectable="0" vertex="1" parent="ECieiov6nm7-ruN3oHQH-104">
          <mxGeometry x="1" relative="1" as="geometry" />
        </mxCell>
        <mxCell id="ECieiov6nm7-ruN3oHQH-106" value="" style="endArrow=none;html=1;rounded=0;entryX=1;entryY=0.5;entryDx=0;entryDy=0;exitX=0.5;exitY=0;exitDx=0;exitDy=0;" edge="1" parent="1" source="ECieiov6nm7-ruN3oHQH-87" target="ECieiov6nm7-ruN3oHQH-3">
          <mxGeometry relative="1" as="geometry">
            <mxPoint x="440" y="380" as="sourcePoint" />
            <mxPoint x="425" y="370" as="targetPoint" />
            <Array as="points">
              <mxPoint x="425" y="380" />
            </Array>
          </mxGeometry>
        </mxCell>
        <mxCell id="ECieiov6nm7-ruN3oHQH-107" value="1" style="resizable=0;html=1;whiteSpace=wrap;align=right;verticalAlign=bottom;" connectable="0" vertex="1" parent="ECieiov6nm7-ruN3oHQH-106">
          <mxGeometry x="1" relative="1" as="geometry" />
        </mxCell>
        <mxCell id="ECieiov6nm7-ruN3oHQH-108" value="" style="endArrow=none;html=1;rounded=0;entryX=0;entryY=0.5;entryDx=0;entryDy=0;exitX=0.5;exitY=1;exitDx=0;exitDy=0;" edge="1" parent="1" source="ECieiov6nm7-ruN3oHQH-87" target="ECieiov6nm7-ruN3oHQH-6">
          <mxGeometry relative="1" as="geometry">
            <mxPoint x="420" y="520" as="sourcePoint" />
            <mxPoint x="635" y="619.5" as="targetPoint" />
            <Array as="points">
              <mxPoint x="425" y="520" />
              <mxPoint x="560" y="520" />
              <mxPoint x="560" y="570" />
              <mxPoint x="560" y="620" />
            </Array>
          </mxGeometry>
        </mxCell>
        <mxCell id="ECieiov6nm7-ruN3oHQH-109" value="N" style="resizable=0;html=1;whiteSpace=wrap;align=right;verticalAlign=bottom;" connectable="0" vertex="1" parent="ECieiov6nm7-ruN3oHQH-108">
          <mxGeometry x="1" relative="1" as="geometry" />
        </mxCell>
        <mxCell id="ECieiov6nm7-ruN3oHQH-110" value="" style="endArrow=none;html=1;rounded=0;entryX=0;entryY=0.75;entryDx=0;entryDy=0;exitX=1;exitY=0.5;exitDx=0;exitDy=0;" edge="1" parent="1" source="ECieiov6nm7-ruN3oHQH-93" target="ECieiov6nm7-ruN3oHQH-6">
          <mxGeometry relative="1" as="geometry">
            <mxPoint x="340" y="680" as="sourcePoint" />
            <mxPoint x="500" y="680" as="targetPoint" />
            <Array as="points">
              <mxPoint x="510" y="630" />
            </Array>
          </mxGeometry>
        </mxCell>
        <mxCell id="ECieiov6nm7-ruN3oHQH-111" value="1" style="resizable=0;html=1;whiteSpace=wrap;align=right;verticalAlign=bottom;" connectable="0" vertex="1" parent="ECieiov6nm7-ruN3oHQH-110">
          <mxGeometry x="1" relative="1" as="geometry">
            <mxPoint x="-4" y="16" as="offset" />
          </mxGeometry>
        </mxCell>
        <mxCell id="ECieiov6nm7-ruN3oHQH-114" value="" style="endArrow=none;html=1;rounded=0;entryX=0;entryY=0.25;entryDx=0;entryDy=0;exitX=0;exitY=0.5;exitDx=0;exitDy=0;" edge="1" parent="1" source="ECieiov6nm7-ruN3oHQH-92" target="ECieiov6nm7-ruN3oHQH-3">
          <mxGeometry relative="1" as="geometry">
            <mxPoint x="-80" y="840" as="sourcePoint" />
            <mxPoint x="-80" y="300" as="targetPoint" />
            <Array as="points">
              <mxPoint x="-80" y="800" />
              <mxPoint x="-80" y="370" />
            </Array>
          </mxGeometry>
        </mxCell>
        <mxCell id="ECieiov6nm7-ruN3oHQH-115" value="1" style="resizable=0;html=1;whiteSpace=wrap;align=right;verticalAlign=bottom;" connectable="0" vertex="1" parent="ECieiov6nm7-ruN3oHQH-114">
          <mxGeometry x="1" relative="1" as="geometry" />
        </mxCell>
        <mxCell id="ECieiov6nm7-ruN3oHQH-123" value="" style="shape=link;html=1;rounded=0;entryX=1;entryY=0.75;entryDx=0;entryDy=0;exitX=0;exitY=0.5;exitDx=0;exitDy=0;entryPerimeter=0;" edge="1" parent="1" source="ECieiov6nm7-ruN3oHQH-93" target="ECieiov6nm7-ruN3oHQH-15">
          <mxGeometry relative="1" as="geometry">
            <mxPoint x="240" y="674" as="sourcePoint" />
            <mxPoint x="400" y="674" as="targetPoint" />
          </mxGeometry>
        </mxCell>
        <mxCell id="ECieiov6nm7-ruN3oHQH-124" value="N" style="resizable=0;html=1;whiteSpace=wrap;align=right;verticalAlign=bottom;" connectable="0" vertex="1" parent="ECieiov6nm7-ruN3oHQH-123">
          <mxGeometry x="1" relative="1" as="geometry">
            <mxPoint x="13" as="offset" />
          </mxGeometry>
        </mxCell>
        <mxCell id="ECieiov6nm7-ruN3oHQH-125" value="" style="shape=link;html=1;rounded=0;entryX=0;entryY=0.5;entryDx=0;entryDy=0;exitX=1;exitY=0.5;exitDx=0;exitDy=0;" edge="1" parent="1" source="ECieiov6nm7-ruN3oHQH-92" target="ECieiov6nm7-ruN3oHQH-16">
          <mxGeometry relative="1" as="geometry">
            <mxPoint x="170" y="801.5" as="sourcePoint" />
            <mxPoint x="330" y="801.5" as="targetPoint" />
          </mxGeometry>
        </mxCell>
        <mxCell id="ECieiov6nm7-ruN3oHQH-126" value="N" style="resizable=0;html=1;whiteSpace=wrap;align=right;verticalAlign=bottom;" connectable="0" vertex="1" parent="ECieiov6nm7-ruN3oHQH-125">
          <mxGeometry x="1" relative="1" as="geometry" />
        </mxCell>
        <mxCell id="ECieiov6nm7-ruN3oHQH-127" value="" style="shape=link;html=1;rounded=0;entryX=0;entryY=0.75;entryDx=0;entryDy=0;exitX=1;exitY=0.5;exitDx=0;exitDy=0;" edge="1" parent="1" source="ECieiov6nm7-ruN3oHQH-91" target="ECieiov6nm7-ruN3oHQH-16">
          <mxGeometry relative="1" as="geometry">
            <mxPoint x="-120" y="930" as="sourcePoint" />
            <mxPoint x="349" y="809" as="targetPoint" />
            <Array as="points">
              <mxPoint x="210" y="930" />
              <mxPoint x="210" y="810" />
            </Array>
          </mxGeometry>
        </mxCell>
        <mxCell id="ECieiov6nm7-ruN3oHQH-128" value="N" style="resizable=0;html=1;whiteSpace=wrap;align=right;verticalAlign=bottom;" connectable="0" vertex="1" parent="ECieiov6nm7-ruN3oHQH-127">
          <mxGeometry x="1" relative="1" as="geometry">
            <mxPoint x="-2" y="18" as="offset" />
          </mxGeometry>
        </mxCell>
        <mxCell id="ECieiov6nm7-ruN3oHQH-129" value="" style="endArrow=none;html=1;rounded=0;exitX=0.5;exitY=0;exitDx=0;exitDy=0;entryX=0;entryY=1;entryDx=0;entryDy=0;" edge="1" parent="1" source="ECieiov6nm7-ruN3oHQH-91" target="ECieiov6nm7-ruN3oHQH-1">
          <mxGeometry relative="1" as="geometry">
            <mxPoint x="-270" y="639" as="sourcePoint" />
            <mxPoint x="-160" y="80" as="targetPoint" />
            <Array as="points">
              <mxPoint x="-170" y="120" />
            </Array>
          </mxGeometry>
        </mxCell>
        <mxCell id="ECieiov6nm7-ruN3oHQH-130" value="1" style="resizable=0;html=1;whiteSpace=wrap;align=right;verticalAlign=bottom;" connectable="0" vertex="1" parent="ECieiov6nm7-ruN3oHQH-129">
          <mxGeometry x="1" relative="1" as="geometry" />
        </mxCell>
      </root>
    </mxGraphModel>
  </diagram>
</mxfile>
